<svg id="svg" version="1.1" xmlns="http://www.w3.org/2000/svg" xmlns:xlink="http://www.w3.org/1999/xlink" width="400" height="400.3225806451613" viewBox="0, 0, 400,400.3225806451613"><g id="svgg"><path id="path0" d="M214.032 90.164 C 177.614 94.011,154.175 116.695,151.929 150.266 C 149.960 179.679,165.448 205.748,190.161 214.619 C 200.729 218.412,204.493 218.974,221.613 219.314 C 234.789 219.575,234.988 219.617,236.644 222.443 C 238.936 226.355,237.625 231.633,233.885 233.541 C 228.236 236.423,204.864 235.796,195.617 232.514 L 193.653 231.817 191.584 233.388 C 186.890 236.954,186.977 236.717,189.839 238.151 C 201.824 244.156,227.607 245.449,237.681 240.551 C 250.224 234.453,247.845 214.050,234.311 211.639 C 233.270 211.454,226.758 211.166,219.839 210.999 C 208.884 210.735,206.841 210.605,204.032 209.997 C 175.898 203.901,160.220 184.184,160.173 154.839 C 160.106 112.777,198.107 89.579,249.677 100.201 C 265.741 103.509,277.122 108.777,289.878 118.807 C 290.611 119.384,290.641 119.370,293.696 117.074 C 297.386 114.301,297.337 114.716,294.274 112.174 C 274.294 95.590,243.259 87.077,214.032 90.164 M77.128 185.455 C 77.085 233.697,77.154 275.576,77.281 278.519 L 77.512 283.871 81.498 283.871 L 85.484 283.871 85.484 190.806 L 85.484 97.742 81.345 97.742 L 77.206 97.742 77.128 185.455 M93.548 190.806 L 93.548 283.871 97.581 283.871 L 101.613 283.871 101.613 190.806 L 101.613 97.742 97.581 97.742 L 93.548 97.742 93.548 190.806 M109.677 190.806 L 109.677 283.871 113.710 283.871 L 117.742 283.871 117.800 207.823 C 117.832 165.996,117.868 124.117,117.881 114.758 L 117.903 97.742 113.790 97.742 L 109.677 97.742 109.677 190.806 M125.806 190.806 L 125.806 283.871 130.000 283.871 L 134.194 283.871 134.194 190.806 L 134.194 97.742 130.000 97.742 L 125.806 97.742 125.806 190.806 M214.194 106.302 C 189.339 109.115,171.811 124.640,168.499 146.774 C 165.473 166.995,174.421 187.484,190.235 196.544 C 191.694 197.380,192.958 198.065,193.043 198.065 C 193.127 198.065,194.111 198.499,195.227 199.030 C 201.172 201.855,207.431 202.766,223.710 203.179 C 237.117 203.518,238.978 203.792,243.387 206.080 C 256.349 212.805,257.969 235.889,246.119 245.008 C 233.788 254.496,199.660 253.527,183.348 243.225 C 180.822 241.629,181.337 241.529,177.915 244.284 C 174.436 247.087,174.451 246.851,177.607 248.987 C 197.052 262.147,235.453 263.487,251.119 251.552 C 265.905 240.287,266.017 212.783,251.323 201.476 C 244.529 196.249,240.037 195.228,222.097 194.835 C 209.240 194.554,207.681 194.408,202.903 193.037 C 186.163 188.235,176.324 174.045,176.305 154.677 C 176.291 138.799,183.467 126.669,196.954 119.775 C 217.722 109.158,257.143 113.599,276.821 128.771 C 278.295 129.908,277.834 130.054,281.169 127.392 C 284.654 124.610,284.556 124.880,282.654 123.287 C 267.637 110.714,238.682 103.530,214.194 106.302 M218.548 122.159 C 196.416 124.131,184.422 135.548,184.387 154.677 C 184.367 165.515,187.290 173.034,193.905 179.158 C 200.387 185.160,204.799 186.349,222.258 186.799 C 238.559 187.219,243.209 187.949,249.861 191.135 C 275.293 203.312,277.634 244.172,253.777 259.474 C 244.400 265.489,235.543 267.606,220.000 267.547 C 198.458 267.466,183.633 263.070,168.764 252.354 C 168.222 251.963,166.394 253.163,163.031 256.115 L 161.946 257.068 164.244 258.866 C 186.618 276.373,228.505 281.467,252.419 269.589 C 290.231 250.809,286.255 192.853,246.339 180.946 C 240.994 179.351,237.745 179.023,224.194 178.710 C 211.122 178.409,210.255 178.349,207.419 177.552 C 190.594 172.822,186.638 146.834,201.115 136.140 C 212.834 127.482,242.981 128.167,261.008 137.500 L 265.403 139.775 268.495 137.388 C 272.208 134.520,272.143 134.995,269.097 132.986 C 257.131 125.091,236.127 120.593,218.548 122.159 M219.103 138.411 C 204.548 139.817,197.388 149.141,201.713 161.057 C 204.659 169.172,207.317 170.300,224.355 170.661 C 245.875 171.117,253.478 173.097,264.989 181.245 C 293.279 201.269,293.830 249.175,266.019 270.693 C 240.204 290.667,187.193 287.673,158.651 264.630 C 155.685 262.236,156.081 262.211,152.254 265.020 L 149.337 267.161 150.858 268.500 C 181.859 295.794,240.647 300.290,270.454 277.646 C 306.468 250.286,301.555 188.651,261.823 169.358 C 251.330 164.263,244.484 162.951,226.452 162.579 C 211.466 162.270,210.387 161.982,209.197 157.976 C 207.736 153.056,209.563 149.033,213.894 147.634 C 219.635 145.780,239.680 146.201,247.581 148.342 C 248.823 148.678,250.501 149.140,251.311 149.367 L 252.784 149.779 255.926 147.418 L 259.068 145.056 258.156 144.479 C 251.011 139.954,232.650 137.101,219.103 138.411 " stroke="none" fill="#ffff00" fill-rule="evenodd"></path><path id="path1" d="M170.968 27.774 C 94.154 31.080,27.905 77.984,9.825 141.864 C 2.473 167.839,3.954 197.226,13.861 221.935 C 14.636 223.871,16.757 232.392,17.749 237.557 C 24.909 274.859,20.269 306.824,4.161 331.160 C 0.821 336.206,0.434 335.843,7.903 334.676 C 38.998 329.819,64.850 320.529,86.379 306.476 L 90.921 303.511 92.187 304.157 C 161.430 339.483,255.232 327.656,310.403 276.643 C 401.524 192.391,352.681 57.951,221.326 31.460 C 205.128 28.193,188.875 27.004,170.968 27.774 M242.453 83.871 C 265.036 85.625,285.411 93.641,300.091 106.548 L 302.279 108.472 299.016 110.881 L 295.754 113.289 296.412 113.990 L 297.070 114.690 293.815 117.074 C 291.157 119.020,290.459 119.394,290.010 119.113 C 289.060 118.520,282.997 123.640,283.921 124.254 C 284.566 124.682,284.457 124.814,281.398 127.316 C 278.487 129.695,278.146 129.889,277.587 129.481 C 276.723 128.849,276.838 128.797,273.589 131.311 C 270.571 133.647,270.291 133.988,271.129 134.310 C 271.989 134.640,271.666 135.024,268.433 137.514 C 265.534 139.746,265.196 139.924,264.618 139.519 C 264.040 139.114,263.706 139.289,260.855 141.487 C 259.135 142.814,257.549 143.815,257.331 143.712 C 257.114 143.609,257.202 143.711,257.528 143.940 C 257.854 144.168,258.348 144.514,258.625 144.709 C 259.047 145.004,258.591 145.472,255.879 147.526 L 252.628 149.988 251.238 149.497 C 246.312 147.760,239.995 146.888,230.161 146.589 C 213.755 146.090,208.859 147.988,208.878 154.839 C 208.885 157.510,210.271 161.479,210.567 159.677 C 210.759 158.511,210.769 158.505,215.002 157.456 C 267.240 144.501,311.647 171.174,313.747 216.769 C 315.010 244.169,297.399 269.336,269.839 279.516 C 268.065 280.171,264.145 281.920,261.129 283.402 C 228.187 299.591,178.391 292.911,150.830 268.608 L 149.241 267.206 152.524 264.721 L 155.806 262.235 158.468 264.404 C 170.306 274.056,190.249 281.774,206.642 283.048 L 208.871 283.221 206.129 282.472 C 192.404 278.723,175.316 269.758,170.294 263.672 C 170.043 263.368,168.242 261.936,166.290 260.488 C 162.166 257.429,161.614 256.877,162.383 256.582 C 163.152 256.287,163.069 256.077,161.094 253.326 C 154.374 243.969,150.392 233.801,148.486 221.129 C 147.604 215.269,147.599 156.811,148.479 150.645 C 153.949 112.344,181.478 88.130,224.516 83.766 C 227.099 83.504,238.593 83.572,242.453 83.871 M129.677 94.677 L 129.677 97.742 131.935 97.742 L 134.194 97.742 134.194 190.968 L 134.194 284.194 130.000 284.194 L 125.806 284.194 125.806 281.144 L 125.806 278.094 123.629 277.999 L 121.452 277.903 121.370 205.081 L 121.289 132.258 119.677 132.258 L 118.066 132.258 117.985 208.145 L 117.903 284.032 113.790 284.123 L 109.677 284.213 109.677 281.139 L 109.677 278.065 107.419 278.065 L 105.161 278.065 105.161 205.161 L 105.161 132.258 103.387 132.258 L 101.613 132.258 101.613 208.226 L 101.613 284.194 97.581 284.194 L 93.548 284.194 93.548 281.129 L 93.548 278.065 91.290 278.065 L 89.032 278.065 89.032 205.161 L 89.032 132.258 87.258 132.258 L 85.484 132.258 85.484 208.226 L 85.484 284.194 81.452 284.194 L 77.419 284.194 77.419 281.129 L 77.419 278.065 75.161 278.065 L 72.903 278.065 72.903 205.161 L 72.903 132.258 60.323 132.258 L 47.742 132.258 47.742 128.065 L 47.742 123.871 62.591 123.871 L 77.439 123.871 77.349 119.919 L 77.258 115.968 62.500 115.884 L 47.742 115.800 47.742 111.771 L 47.742 107.742 62.581 107.742 L 77.419 107.742 77.419 103.710 L 77.419 99.677 62.581 99.677 L 47.742 99.677 47.742 95.645 L 47.742 91.613 88.710 91.613 L 129.677 91.613 129.677 94.677 M219.839 97.939 C 200.846 99.110,185.061 105.534,174.990 116.194 C 161.568 130.401,156.803 151.156,162.230 171.783 C 164.121 178.974,164.137 178.930,164.173 166.452 C 164.227 147.696,166.507 138.262,173.623 127.349 C 188.791 104.088,224.567 93.760,258.710 102.785 C 259.153 102.903,259.444 102.920,259.355 102.825 C 258.659 102.077,246.991 99.639,239.839 98.747 C 234.892 98.130,223.929 97.687,219.839 97.939 M85.484 103.710 L 85.484 107.742 89.516 107.742 L 93.548 107.742 93.548 103.710 L 93.548 99.677 89.516 99.677 L 85.484 99.677 85.484 103.710 M101.613 103.710 L 101.613 107.742 105.645 107.742 L 109.677 107.742 109.677 103.710 L 109.677 99.677 105.645 99.677 L 101.613 99.677 101.613 103.710 M118.065 103.710 L 118.065 107.742 121.935 107.742 L 125.806 107.742 125.806 103.710 L 125.806 99.677 121.935 99.677 L 118.065 99.677 118.065 103.710 M216.774 114.392 C 197.542 116.695,185.291 124.570,179.401 138.414 C 175.266 148.136,175.294 162.803,179.467 171.950 L 180.270 173.710 180.297 165.645 C 180.351 149.607,182.451 142.375,189.738 133.123 C 200.810 119.067,222.715 113.015,248.172 116.979 C 252.413 117.639,252.450 117.357,248.239 116.469 C 239.733 114.676,223.408 113.598,216.774 114.392 M85.484 119.839 L 85.484 123.871 89.516 123.871 L 93.548 123.871 93.548 119.839 L 93.548 115.806 89.516 115.806 L 85.484 115.806 85.484 119.839 M101.828 116.022 C 101.710 116.140,101.613 117.954,101.613 120.054 L 101.613 123.871 105.645 123.871 L 109.677 123.871 109.677 119.839 L 109.677 115.806 105.860 115.806 C 103.761 115.806,101.946 115.903,101.828 116.022 M118.065 119.839 L 118.065 123.871 121.935 123.871 L 125.806 123.871 125.806 119.839 L 125.806 115.806 121.935 115.806 L 118.065 115.806 118.065 119.839 M218.065 130.521 C 206.783 131.943,200.056 135.400,195.822 141.951 C 191.650 148.405,191.386 160.129,195.245 167.516 L 196.290 169.516 196.482 163.065 C 196.721 155.023,197.257 152.278,199.436 147.921 C 205.677 135.444,223.752 129.576,245.766 132.879 C 251.176 133.691,251.921 133.579,247.704 132.589 C 240.530 130.905,224.110 129.759,218.065 130.521 M234.677 162.234 L 232.419 162.419 235.971 162.649 C 251.165 163.633,264.329 168.777,274.330 177.638 C 275.896 179.026,278.139 180.941,279.315 181.895 C 295.255 194.825,301.465 215.061,295.266 233.871 C 294.652 235.734,293.882 238.637,293.555 240.323 C 292.278 246.914,290.301 252.562,287.349 258.054 L 285.708 261.109 287.833 259.243 C 296.941 251.247,303.645 238.473,305.129 226.290 C 309.741 188.401,277.137 158.756,234.677 162.234 M204.839 171.776 L 204.839 176.728 206.532 177.213 C 207.464 177.479,208.762 177.795,209.417 177.913 L 210.609 178.130 210.708 176.404 L 210.806 174.679 214.677 173.643 C 218.484 172.624,225.849 171.096,228.065 170.866 C 228.685 170.801,225.634 170.725,221.284 170.697 C 212.139 170.637,209.962 170.245,206.703 168.068 L 204.839 166.823 204.839 171.776 M188.387 178.769 L 188.387 185.111 189.758 186.292 C 190.512 186.942,192.290 188.191,193.710 189.068 L 196.290 190.663 196.382 186.057 C 196.471 181.593,196.452 181.433,195.737 180.863 C 193.761 179.285,191.061 176.402,189.795 174.520 L 188.387 172.426 188.387 178.769 M172.253 184.220 L 172.249 192.097 175.984 195.726 C 178.039 197.722,179.855 199.355,180.021 199.355 C 180.196 199.355,180.323 197.104,180.323 193.996 L 180.323 188.638 179.089 187.142 C 177.045 184.662,175.002 181.598,173.592 178.898 L 172.258 176.344 172.253 184.220 M233.871 178.100 C 229.623 178.473,229.125 178.615,231.883 178.666 C 242.956 178.871,252.750 182.102,260.806 188.205 C 262.226 189.281,263.895 190.431,264.516 190.763 C 278.882 198.422,285.456 216.854,279.017 231.412 C 278.636 232.272,278.118 234.260,277.865 235.829 C 277.215 239.869,275.993 243.875,274.355 247.339 C 272.779 250.673,272.822 250.828,274.861 249.139 C 283.458 242.021,286.131 237.410,286.367 229.295 C 286.885 211.441,280.933 195.436,270.068 185.468 C 263.722 179.644,249.424 176.734,233.871 178.100 M156.138 197.421 C 156.127 218.205,156.460 222.048,159.020 230.645 C 161.799 239.981,167.897 250.230,173.834 255.545 C 178.952 260.126,194.680 265.383,207.900 266.929 C 212.699 267.490,213.240 267.404,209.935 266.604 C 200.368 264.288,188.557 258.283,181.925 252.364 C 180.767 251.330,178.700 249.758,177.333 248.871 C 174.862 247.268,174.401 246.688,175.317 246.337 C 175.685 246.196,175.298 245.421,173.651 242.996 C 166.391 232.310,164.194 223.656,164.194 205.747 L 164.194 195.287 162.644 192.885 C 160.372 189.365,158.800 186.440,157.395 183.112 L 156.148 180.161 156.138 197.421 M204.839 189.444 L 204.839 193.484 206.371 193.818 C 207.214 194.001,208.520 194.235,209.274 194.337 L 210.645 194.524 210.645 192.465 L 210.645 190.406 214.113 189.401 C 216.020 188.848,218.741 188.125,220.160 187.794 L 222.738 187.194 217.418 186.955 C 212.701 186.744,209.238 186.345,205.887 185.628 L 204.839 185.403 204.839 189.444 M233.460 193.555 C 232.081 193.687,229.758 193.992,228.299 194.232 L 225.645 194.670 230.484 194.878 C 239.780 195.277,245.876 197.154,251.086 201.223 C 252.174 202.073,253.744 203.024,254.575 203.338 C 263.853 206.839,268.216 218.714,263.213 226.845 C 262.588 227.860,262.258 228.827,262.258 229.640 C 262.258 231.505,261.368 236.240,260.674 238.066 C 259.931 240.022,259.844 240.017,262.685 238.184 C 268.794 234.243,270.489 231.427,270.220 225.659 C 269.680 214.039,266.147 205.015,259.429 198.096 C 255.444 193.993,246.063 192.353,233.460 193.555 M188.387 200.121 L 188.387 204.752 190.726 205.803 C 192.012 206.381,193.827 207.119,194.758 207.442 L 196.452 208.030 196.452 203.863 L 196.452 199.697 193.989 198.559 C 192.634 197.933,190.820 196.987,189.956 196.455 L 188.387 195.490 188.387 200.121 M370.983 200.170 C 361.059 250.047,331.346 288.860,282.742 315.435 C 255.495 330.332,216.911 340.323,186.621 340.323 L 184.038 340.323 186.745 342.135 C 225.894 368.345,280.747 372.916,323.298 353.513 C 327.495 351.598,326.943 351.594,329.861 353.563 C 342.442 362.053,365.362 369.876,386.129 372.768 C 396.144 374.162,401.404 371.573,396.931 367.450 C 381.367 353.104,376.743 317.256,386.778 288.732 C 397.422 258.473,391.683 223.372,372.141 199.203 L 371.366 198.244 370.983 200.170 M204.839 205.911 C 204.839 210.538,204.610 210.230,208.273 210.539 L 210.645 210.740 210.645 208.655 L 210.645 206.571 212.823 205.789 C 214.020 205.359,216.216 204.630,217.703 204.169 L 220.406 203.330 215.768 203.119 C 211.251 202.914,206.569 202.441,205.411 202.074 C 204.884 201.906,204.839 202.208,204.839 205.911 M172.348 210.496 C 172.728 223.926,175.640 232.722,182.581 241.408 C 186.606 246.446,197.281 249.957,212.097 251.115 L 214.355 251.291 211.746 250.502 C 204.081 248.182,196.809 244.316,192.325 240.177 C 191.313 239.241,189.831 238.148,189.032 237.747 C 187.206 236.829,187.303 236.951,187.786 236.178 C 188.129 235.630,188.112 235.423,187.683 234.937 C 184.028 230.796,180.841 221.501,180.426 213.773 L 180.222 209.966 177.772 208.326 C 176.425 207.424,174.612 206.094,173.745 205.371 L 172.166 204.057 172.348 210.496 M235.645 208.583 C 231.670 208.990,228.481 209.456,225.323 210.092 L 221.774 210.806 227.581 211.005 C 233.821 211.218,235.616 211.536,238.392 212.918 C 242.728 215.077,245.806 220.705,245.806 226.473 C 245.806 228.592,245.566 228.533,249.355 227.349 C 253.136 226.168,253.871 225.605,253.869 223.892 C 253.860 218.100,249.517 209.384,246.406 208.914 C 244.571 208.637,237.300 208.413,235.645 208.583 M188.833 215.834 C 189.723 222.880,194.012 231.906,196.935 232.887 C 199.804 233.849,209.752 235.191,213.620 235.138 L 215.323 235.114 213.710 234.540 C 204.551 231.277,199.081 225.656,197.284 217.661 C 197.174 217.173,196.889 216.774,196.651 216.774 C 196.258 216.774,190.719 214.959,189.226 214.341 C 188.653 214.104,188.627 214.203,188.833 215.834 M206.452 218.953 C 206.452 219.617,209.105 223.229,210.260 224.138 C 214.261 227.286,220.311 228.697,230.887 228.948 L 237.742 229.111 237.740 227.378 C 237.736 223.849,236.544 221.579,234.032 220.323 C 232.428 219.520,232.358 219.515,220.645 219.303 C 214.169 219.186,208.327 218.986,207.661 218.858 C 206.904 218.712,206.452 218.748,206.452 218.953 M250.161 235.374 C 248.742 235.803,246.492 236.319,245.161 236.521 C 242.997 236.849,242.585 237.032,241.250 238.257 C 237.559 241.648,232.350 243.183,223.548 243.474 C 217.649 243.669,217.605 243.675,219.677 244.068 C 227.978 245.642,244.511 245.586,247.043 243.977 C 249.128 242.652,254.370 234.294,252.953 234.555 C 252.837 234.576,251.581 234.945,250.161 235.374 M262.027 247.781 C 258.680 249.458,252.787 251.613,251.548 251.613 C 251.256 251.613,250.607 251.955,250.105 252.373 C 244.672 256.899,233.922 259.663,221.452 259.738 L 216.290 259.769 219.516 260.343 C 229.601 262.137,245.033 261.703,253.418 259.388 C 255.978 258.681,261.708 252.977,264.560 248.296 C 266.214 245.582,266.357 245.611,262.027 247.781 M275.484 258.748 C 271.430 261.471,263.759 265.048,259.673 266.120 C 258.877 266.329,257.282 267.063,256.129 267.752 C 246.758 273.345,235.874 275.899,221.290 275.925 L 214.355 275.938 217.742 276.482 C 235.392 279.316,257.016 277.122,264.571 271.732 C 268.846 268.682,274.693 262.500,277.573 257.984 C 278.298 256.847,278.333 256.834,275.484 258.748 " stroke="none" fill="#0000ff" fill-rule="evenodd"></path><path id="path2" d="M224.516 83.766 C 181.478 88.130,153.949 112.344,148.479 150.645 C 147.599 156.811,147.604 215.269,148.486 221.129 C 150.409 233.913,154.415 244.061,161.337 253.685 L 163.031 256.040 165.624 253.999 C 167.831 252.261,168.298 252.016,168.766 252.350 C 169.068 252.566,170.449 253.526,171.835 254.484 L 174.355 256.225 172.716 254.484 C 165.168 246.462,160.239 236.948,157.690 225.484 C 156.333 219.379,156.123 215.561,156.137 197.242 C 156.148 182.600,156.074 179.625,155.675 178.670 C 152.989 172.240,151.310 159.513,151.929 150.266 C 154.634 109.831,187.901 85.978,235.968 90.009 C 259.353 91.970,278.207 99.218,294.989 112.699 L 295.738 113.301 299.008 110.886 L 302.279 108.472 300.091 106.548 C 281.735 90.409,250.843 81.097,224.516 83.766 M47.742 95.645 L 47.742 99.677 62.419 99.677 L 77.097 99.677 77.097 98.710 L 77.097 97.742 81.290 97.742 L 85.484 97.742 85.484 98.710 L 85.484 99.677 89.516 99.677 L 93.548 99.677 93.548 98.710 L 93.548 97.742 97.581 97.742 L 101.613 97.742 101.613 98.710 L 101.613 99.677 105.645 99.677 L 109.677 99.677 109.677 98.710 L 109.677 97.742 113.790 97.742 L 117.903 97.742 117.881 114.758 C 117.868 124.117,117.832 165.992,117.800 207.813 L 117.742 283.852 113.709 283.957 L 109.676 284.062 113.790 284.047 L 117.903 284.032 117.985 208.145 L 118.066 132.258 119.677 132.258 L 121.289 132.258 121.370 205.081 L 121.452 277.903 123.629 277.999 L 125.806 278.094 125.806 200.982 L 125.806 123.871 121.935 123.871 L 118.065 123.871 118.065 119.839 L 118.065 115.806 121.935 115.806 L 125.806 115.806 125.806 111.774 L 125.806 107.742 121.935 107.742 L 118.065 107.742 118.065 103.710 L 118.065 99.677 121.935 99.677 L 125.806 99.677 125.806 98.710 L 125.806 97.742 127.742 97.742 L 129.677 97.742 129.677 94.677 L 129.677 91.613 88.710 91.613 L 47.742 91.613 47.742 95.645 M219.597 97.970 C 219.996 98.046,220.649 98.046,221.048 97.970 C 221.448 97.893,221.121 97.830,220.323 97.830 C 219.524 97.830,219.198 97.893,219.597 97.970 M229.597 97.970 C 229.996 98.046,230.649 98.046,231.048 97.970 C 231.448 97.893,231.121 97.830,230.323 97.830 C 229.524 97.830,229.198 97.893,229.597 97.970 M222.581 100.171 C 192.313 103.878,171.803 120.379,165.812 145.844 C 164.465 151.566,164.210 154.860,164.185 166.796 L 164.162 178.206 166.276 182.410 C 167.439 184.721,169.224 187.774,170.243 189.194 L 172.097 191.774 172.258 184.032 C 172.347 179.774,172.306 176.125,172.168 175.924 C 169.157 171.526,167.164 155.695,168.499 146.774 C 171.865 124.281,189.492 108.939,215.041 106.266 C 238.623 103.799,264.902 109.999,280.644 121.744 C 281.974 122.736,283.184 123.548,283.333 123.548 C 283.790 123.548,289.194 118.988,289.194 118.602 C 289.194 116.830,270.814 105.983,266.129 104.991 C 265.863 104.934,265.609 104.859,265.565 104.823 C 265.520 104.787,265.339 104.722,265.161 104.677 C 264.984 104.633,264.802 104.568,264.758 104.532 C 264.714 104.497,264.315 104.402,263.871 104.322 C 263.427 104.241,263.019 104.042,262.963 103.880 C 262.907 103.717,262.653 103.665,262.399 103.762 C 262.144 103.860,261.935 103.784,261.935 103.593 C 261.935 103.402,261.732 103.324,261.484 103.419 C 261.236 103.514,260.941 103.444,260.829 103.262 C 260.716 103.080,260.411 103.013,260.151 103.113 C 259.891 103.213,259.677 103.148,259.677 102.968 C 259.677 102.788,259.364 102.723,258.982 102.823 C 258.556 102.934,258.364 102.878,258.488 102.678 C 258.613 102.476,258.369 102.413,257.846 102.513 C 257.329 102.612,257.078 102.549,257.200 102.351 C 257.322 102.155,257.056 102.084,256.522 102.169 C 255.812 102.282,255.737 102.239,256.129 101.940 C 256.526 101.637,256.487 101.606,255.911 101.767 C 255.524 101.875,253.637 101.667,251.717 101.304 C 243.607 99.772,230.121 99.247,222.581 100.171 M47.742 111.768 L 47.742 115.794 62.500 115.881 L 77.258 115.968 77.258 111.855 L 77.258 107.742 62.500 107.742 L 47.742 107.742 47.742 111.768 M85.484 111.774 L 85.484 115.806 89.516 115.806 L 93.548 115.806 93.548 111.774 L 93.548 107.742 89.516 107.742 L 85.484 107.742 85.484 111.774 M101.612 111.855 L 101.612 115.968 105.645 115.869 L 109.677 115.770 109.677 111.756 L 109.677 107.742 105.645 107.742 L 101.613 107.742 101.612 111.855 M223.468 114.110 C 224.577 114.173,226.391 114.173,227.500 114.110 C 228.609 114.047,227.702 113.995,225.484 113.995 C 223.266 113.995,222.359 114.047,223.468 114.110 M226.613 116.031 C 205.067 117.966,190.848 126.875,183.852 142.823 C 181.106 149.084,180.349 153.970,180.308 165.693 L 180.281 173.806 181.239 175.693 C 182.351 177.884,185.552 182.244,187.229 183.854 L 188.387 184.965 188.387 178.663 L 188.387 172.361 187.438 170.455 C 179.965 155.442,185.299 135.528,198.872 127.762 C 215.422 118.293,249.713 120.632,268.385 132.504 L 270.418 133.797 273.485 131.399 C 275.435 129.876,276.740 129.068,277.067 129.183 C 279.436 130.015,270.398 124.493,265.805 122.302 C 261.901 120.439,255.161 117.890,255.161 118.276 C 255.161 118.381,254.950 118.291,254.692 118.076 C 254.433 117.862,254.080 117.774,253.907 117.881 C 253.734 117.988,253.510 117.941,253.409 117.777 C 253.308 117.614,252.935 117.556,252.580 117.649 C 252.226 117.741,251.935 117.660,251.935 117.467 C 251.935 117.275,251.734 117.194,251.488 117.289 C 251.241 117.383,250.145 117.299,249.051 117.100 C 243.537 116.100,231.974 115.549,226.613 116.031 M47.742 128.065 L 47.742 132.258 60.323 132.258 L 72.903 132.258 72.903 205.161 L 72.903 278.065 75.081 278.065 L 77.258 278.065 77.258 200.968 L 77.258 123.871 62.500 123.871 L 47.742 123.871 47.742 128.065 M85.484 128.065 L 85.484 132.258 87.258 132.258 L 89.032 132.258 89.032 205.161 L 89.032 278.065 91.290 278.065 L 93.548 278.065 93.548 200.968 L 93.548 123.871 89.516 123.871 L 85.484 123.871 85.484 128.065 M101.613 128.065 L 101.613 132.258 103.387 132.258 L 105.161 132.258 105.161 205.161 L 105.161 278.065 107.419 278.065 L 109.677 278.065 109.677 200.968 L 109.677 123.871 105.645 123.871 L 101.613 123.871 101.613 128.065 M226.973 132.266 C 205.905 134.679,196.623 144.375,196.409 164.194 L 196.348 169.839 198.900 172.419 C 200.338 173.874,202.191 175.380,203.145 175.870 L 204.839 176.740 204.839 171.790 L 204.839 166.839 203.735 165.198 C 197.953 156.607,200.363 145.111,208.781 141.123 C 218.374 136.578,241.222 137.289,253.991 142.530 C 257.721 144.061,257.391 144.113,260.899 141.452 C 263.607 139.397,263.825 139.154,263.309 138.752 C 262.425 138.065,255.085 134.546,254.283 134.426 C 253.888 134.366,253.474 134.227,253.364 134.117 C 253.253 134.006,252.959 133.994,252.710 134.089 C 252.462 134.184,252.258 134.115,252.258 133.936 C 252.258 133.756,251.945 133.691,251.562 133.791 C 251.056 133.923,250.935 133.862,251.119 133.565 C 251.300 133.272,251.200 133.211,250.764 133.349 C 250.431 133.455,248.238 133.260,245.891 132.916 C 240.947 132.190,230.709 131.839,226.973 132.266 M232.177 146.679 C 232.577 146.756,233.230 146.756,233.629 146.679 C 234.028 146.602,233.702 146.539,232.903 146.539 C 232.105 146.539,231.778 146.602,232.177 146.679 M176.210 151.774 C 176.214 152.484,176.280 152.736,176.357 152.335 C 176.434 151.934,176.431 151.353,176.351 151.045 C 176.270 150.736,176.207 151.065,176.210 151.774 M192.339 153.065 C 192.343 153.774,192.409 154.027,192.486 153.625 C 192.563 153.224,192.560 152.643,192.480 152.335 C 192.399 152.027,192.336 152.355,192.339 153.065 M231.129 154.715 C 223.477 155.535,211.708 157.841,210.864 158.684 C 210.716 158.833,210.642 159.363,210.701 159.864 C 211.017 162.584,216.978 163.031,239.938 162.057 C 285.252 160.135,317.785 201.271,301.486 239.883 C 298.192 247.687,287.809 261.522,286.058 260.440 C 285.858 260.316,285.799 260.371,285.920 260.568 C 286.037 260.757,286.013 260.961,285.867 261.021 C 285.720 261.080,284.969 262.073,284.198 263.226 C 280.152 269.273,268.306 280.645,266.052 280.645 C 265.858 280.645,265.770 280.716,265.857 280.803 C 265.943 280.889,267.730 280.310,269.826 279.514 C 300.780 267.770,317.963 239.469,312.915 208.543 C 307.103 172.932,272.658 150.262,231.129 154.715 M192.350 155.968 C 192.353 156.855,192.415 157.179,192.490 156.689 C 192.564 156.199,192.562 155.473,192.485 155.076 C 192.409 154.679,192.348 155.081,192.350 155.968 M176.210 157.581 C 176.214 158.290,176.280 158.543,176.357 158.141 C 176.434 157.740,176.431 157.159,176.351 156.851 C 176.270 156.543,176.207 156.871,176.210 157.581 M228.065 170.866 C 225.848 171.096,218.483 172.624,214.677 173.643 L 210.806 174.680 210.643 176.507 C 210.511 177.987,210.573 178.339,210.966 178.355 C 219.004 178.689,228.435 178.719,230.806 178.418 C 243.555 176.798,256.507 178.241,265.403 182.272 C 266.512 182.774,267.419 183.145,267.419 183.096 C 267.419 182.405,257.910 176.662,254.222 175.127 C 247.996 172.535,233.912 170.010,229.516 170.698 C 229.339 170.726,228.685 170.801,228.065 170.866 M275.793 179.113 C 276.584 179.956,277.273 180.645,277.325 180.645 C 277.567 180.645,277.311 180.356,275.887 179.019 L 274.355 177.581 275.793 179.113 M233.794 178.938 C 234.195 179.015,234.776 179.012,235.084 178.931 C 235.393 178.851,235.065 178.787,234.355 178.791 C 233.645 178.795,233.393 178.861,233.794 178.938 M278.216 181.290 C 278.374 181.556,279.328 182.790,280.335 184.032 C 290.549 196.621,296.102 215.582,294.546 232.561 C 294.122 237.191,294.239 237.291,295.456 233.340 C 301.262 214.496,294.911 194.215,279.358 181.935 C 278.571 181.315,278.057 181.024,278.216 181.290 M196.452 186.133 L 196.452 190.653 198.192 191.423 C 199.149 191.846,200.782 192.433,201.821 192.727 C 202.860 193.022,203.959 193.335,204.264 193.424 C 204.765 193.570,204.828 193.186,204.910 189.469 L 205.000 185.353 202.535 184.500 C 201.179 184.031,199.326 183.189,198.417 182.630 C 197.508 182.071,196.694 181.613,196.608 181.613 C 196.522 181.613,196.452 183.647,196.452 186.133 M219.839 187.016 L 222.742 187.157 220.161 187.776 C 218.742 188.117,216.020 188.848,214.113 189.401 L 210.645 190.406 210.645 192.432 L 210.645 194.458 213.306 194.679 C 217.239 195.005,226.192 194.670,229.516 194.073 C 237.486 192.642,248.763 193.111,254.785 195.125 C 257.810 196.137,257.751 196.031,253.821 193.377 C 246.930 188.723,240.368 187.231,225.806 187.010 C 220.927 186.936,218.242 186.939,219.839 187.016 M180.250 194.065 L 180.161 199.516 183.065 201.485 C 185.780 203.327,187.799 204.516,188.210 204.516 C 188.307 204.516,188.387 202.508,188.387 200.055 L 188.387 195.593 186.855 194.508 C 186.012 193.912,184.201 192.341,182.831 191.018 L 180.339 188.613 180.250 194.065 M265.799 192.823 C 274.217 201.960,278.426 213.457,278.450 227.374 L 278.459 232.651 279.080 231.265 C 280.360 228.404,281.029 225.091,281.203 220.753 C 281.706 208.179,277.087 199.057,266.726 192.163 C 263.133 189.772,263.046 189.834,265.799 192.823 M231.859 195.067 C 232.260 195.144,232.841 195.141,233.149 195.060 C 233.457 194.980,233.129 194.916,232.419 194.920 C 231.710 194.924,231.457 194.990,231.859 195.067 M164.204 205.765 C 164.186 223.525,166.289 231.943,173.422 242.657 C 175.903 246.383,175.365 246.253,178.438 243.871 C 181.384 241.588,180.911 241.673,183.051 243.042 L 184.781 244.148 182.632 241.467 C 175.645 232.746,172.729 223.963,172.348 210.492 L 172.166 204.048 170.667 202.701 C 169.380 201.544,167.893 199.857,164.869 196.129 L 164.215 195.323 164.204 205.765 M196.388 203.718 L 196.486 208.029 198.324 208.572 C 200.834 209.315,205.292 210.288,205.457 210.129 C 205.531 210.058,205.422 210.000,205.215 210.000 C 204.949 210.000,204.839 208.831,204.839 205.993 L 204.839 201.987 203.790 201.778 C 202.004 201.422,196.953 199.934,196.613 199.664 C 196.400 199.495,196.324 200.876,196.388 203.718 M217.258 203.158 L 220.484 203.277 217.742 204.142 C 216.234 204.618,214.020 205.359,212.823 205.789 L 210.645 206.571 210.645 208.586 C 210.645 210.418,210.580 210.613,209.919 210.740 C 209.520 210.817,210.645 210.900,212.419 210.925 C 214.194 210.949,219.202 211.022,223.548 211.086 C 228.741 211.162,229.792 211.135,226.613 211.004 L 221.774 210.806 225.323 210.092 C 232.407 208.665,239.737 208.189,245.323 208.792 L 247.581 209.036 246.452 208.075 C 241.814 204.127,232.991 202.640,216.290 202.991 C 214.582 203.027,214.818 203.067,217.258 203.158 M254.580 204.556 C 259.297 210.110,261.771 216.579,262.213 224.516 L 262.419 228.226 263.303 226.723 C 267.692 219.257,264.458 208.445,256.600 204.311 C 253.207 202.525,252.887 202.564,254.580 204.556 M180.383 213.502 C 180.863 221.528,183.368 229.074,187.336 234.451 C 187.819 235.105,188.040 235.727,187.911 236.064 C 187.769 236.434,187.995 236.342,188.608 235.777 C 191.674 232.958,193.579 231.837,194.710 232.184 C 196.084 232.605,196.082 232.587,194.495 230.580 C 191.878 227.269,189.495 221.079,188.841 215.892 L 188.628 214.204 185.273 212.601 C 183.427 211.720,181.521 210.717,181.038 210.372 L 180.158 209.746 180.383 213.502 M197.292 217.693 C 199.065 225.617,205.330 231.995,213.847 234.547 C 214.969 234.883,215.122 235.012,214.636 235.208 C 213.430 235.695,227.605 235.195,230.200 234.659 C 234.291 233.814,237.419 231.540,237.419 229.411 C 237.419 229.243,234.495 229.041,230.726 228.948 C 216.461 228.598,208.710 225.449,206.400 219.065 C 206.340 218.898,204.848 218.517,203.086 218.219 C 201.323 217.920,199.256 217.487,198.491 217.257 L 197.101 216.838 197.292 217.693 M212.339 219.255 C 212.649 219.336,213.157 219.336,213.468 219.255 C 213.778 219.173,213.524 219.107,212.903 219.107 C 212.282 219.107,212.028 219.173,212.339 219.255 M253.871 224.618 C 253.871 225.713,251.165 227.000,246.250 228.244 C 246.051 228.294,245.782 229.037,245.654 229.894 C 245.341 231.982,244.618 234.045,243.673 235.542 C 242.912 236.748,242.909 236.774,243.558 236.774 C 244.550 236.774,248.807 235.855,251.112 235.143 L 253.142 234.516 253.511 232.642 C 253.923 230.546,254.336 223.871,254.053 223.871 C 253.953 223.871,253.871 224.207,253.871 224.618 M268.544 232.950 C 267.083 234.866,264.339 237.233,261.858 238.717 C 260.380 239.601,259.953 240.098,258.878 242.185 C 257.440 244.979,254.613 248.669,252.573 250.416 C 251.804 251.074,251.388 251.613,251.649 251.613 C 252.731 251.613,258.473 249.527,261.862 247.903 C 263.862 246.944,265.575 246.189,265.668 246.225 C 266.068 246.379,268.175 241.046,269.020 237.742 C 269.629 235.359,270.214 231.290,269.947 231.290 C 269.871 231.290,269.240 232.037,268.544 232.950 M284.701 237.840 C 282.533 241.763,277.938 246.928,274.217 249.624 C 273.476 250.160,272.079 251.822,271.016 253.433 C 268.101 257.848,263.050 263.112,259.032 265.923 L 258.226 266.488 259.194 266.269 C 262.672 265.484,271.137 261.616,275.119 258.994 C 276.426 258.133,277.646 257.521,277.830 257.635 C 278.023 257.755,278.067 257.685,277.934 257.469 C 277.807 257.264,277.837 257.097,278.000 257.097 C 279.170 257.097,284.152 244.833,285.316 239.086 C 285.974 235.834,285.897 235.677,284.701 237.840 M192.501 240.312 C 197.199 244.704,203.633 247.939,214.194 251.219 C 214.637 251.357,217.903 251.447,221.452 251.418 C 233.054 251.325,240.180 249.502,245.935 245.157 C 247.764 243.777,248.347 243.149,247.016 243.994 C 244.472 245.610,228.419 245.640,219.516 244.046 C 218.097 243.792,215.556 243.494,213.871 243.383 C 205.698 242.847,198.814 241.604,193.547 239.712 L 190.806 238.728 192.501 240.312 M182.258 252.616 C 188.184 258.074,198.746 263.469,209.516 266.538 C 217.898 268.927,234.916 267.649,245.198 263.857 C 249.032 262.444,255.618 258.789,253.061 259.493 C 245.000 261.715,229.952 262.094,219.363 260.344 C 217.318 260.005,214.339 259.633,212.742 259.517 C 202.414 258.762,191.739 256.158,183.569 252.401 L 180.484 250.982 182.258 252.616 M170.016 263.410 C 176.688 270.570,194.643 279.921,206.867 282.602 C 208.012 282.853,208.577 283.108,208.329 283.262 C 208.089 283.410,208.381 283.509,209.042 283.504 C 209.658 283.499,213.863 283.597,218.387 283.721 C 233.852 284.147,245.691 281.849,257.022 276.223 C 261.941 273.780,262.113 273.579,258.363 274.660 C 246.860 277.974,231.632 278.636,217.419 276.440 C 215.202 276.097,211.790 275.665,209.839 275.479 C 196.459 274.206,182.006 269.946,172.566 264.492 C 170.105 263.071,169.433 262.785,170.016 263.410 M220.403 276.044 C 221.246 276.110,222.625 276.110,223.468 276.044 C 224.310 275.977,223.621 275.923,221.935 275.923 C 220.250 275.923,219.560 275.977,220.403 276.044 M79.449 284.110 C 80.654 284.173,82.541 284.172,83.642 284.109 C 84.744 284.047,83.758 283.996,81.452 283.996 C 79.145 283.997,78.244 284.048,79.449 284.110 M95.578 284.110 C 96.783 284.173,98.670 284.172,99.771 284.109 C 100.873 284.047,99.887 283.996,97.581 283.996 C 95.274 283.997,94.373 284.048,95.578 284.110 M127.823 284.110 C 129.020 284.172,130.980 284.172,132.177 284.110 C 133.375 284.048,132.395 283.997,130.000 283.997 C 127.605 283.997,126.625 284.048,127.823 284.110 M216.699 292.169 C 217.279 292.241,218.150 292.240,218.635 292.166 C 219.120 292.092,218.645 292.034,217.581 292.035 C 216.516 292.037,216.120 292.097,216.699 292.169 M225.403 292.169 C 225.980 292.240,226.923 292.240,227.500 292.169 C 228.077 292.097,227.605 292.039,226.452 292.039 C 225.298 292.039,224.827 292.097,225.403 292.169 " stroke="none" fill="#ffffff" fill-rule="evenodd"></path></g></svg>